<?xml version="1.0" standalone="no"?><!DOCTYPE svg PUBLIC "-//W3C//DTD SVG 1.1//EN" "http://www.w3.org/Graphics/SVG/1.1/DTD/svg11.dtd"><svg t="1623125971716" class="icon" viewBox="0 0 1024 1024" version="1.1" xmlns="http://www.w3.org/2000/svg" p-id="2376" xmlns:xlink="http://www.w3.org/1999/xlink" width="200" height="200"><defs><style type="text/css"></style></defs><path d="M96.03824 992c0 17.696 14.32 32 32 32h768c17.68 0 32-14.304 32-32V544h-832v448z" fill="#E29460" p-id="2377"></path><path d="M1019.28624 463.216l-256-352A31.936 31.936 0 0 0 736.03824 96h-448c-11.12 0-21.44 5.744-27.248 15.216l-256 352a31.968 31.968 0 0 0 27.248 48.768h960a31.968 31.968 0 0 0 27.248-48.768z" fill="#DAE2E5" p-id="2378"></path><path d="M992.03824 480h-960a32.048 32.048 0 0 1-27.632-15.936 31.952 31.952 0 0 0-0.32 31.568A32.032 32.032 0 0 0 32.02224 512h960c11.6 0 22.288-6.288 27.936-16.368a31.92 31.92 0 0 0-0.32-31.568 31.952 31.952 0 0 1-27.6 15.936z" opacity=".1" p-id="2379"></path><path d="M96.03824 928h832v32h-832zM96.03824 832h832v32h-832zM96.03824 736h832v32h-832zM96.03824 640h832v32h-832zM96.03824 544h832v32h-832z" opacity=".15" p-id="2380"></path><path d="M384.03824 672a128 128 0 0 0-128 128v224h256V800a128 128 0 0 0-128-128zM608.03824 672h160v160h-160z" fill="#434854" p-id="2381"></path><path d="M768.03824 736h-64v-64h-32v64h-64v32h64v64h32v-64h64z" fill="#E29460" p-id="2382"></path><path d="M608.03824 736h160v32h-160z" opacity=".1" p-id="2383"></path><path d="M352.03824 64h128v128h-128z" fill="#EF4D4D" p-id="2384"></path><path d="M512.03824 32c0 17.696-14.32 32-32 32h-128c-17.68 0-32-14.304-32-32 0-17.696 14.32-32 32-32h128c17.68 0 32 14.304 32 32z" fill="#DAE2E5" p-id="2385"></path><path d="M64.03824 544h896c17.68 0 32-14.304 32-32h-960c0 17.696 14.32 32 32 32z" fill="#EF4D4D" p-id="2386"></path><path d="M352.03824 64h128c17.68 0 32-14.304 32-32h-192c0 17.696 14.32 32 32 32z" opacity=".1" p-id="2387"></path><path d="M352.03824 64h128v32h-128z" opacity=".15" p-id="2388"></path></svg>