<?xml version="1.0" standalone="no"?><!DOCTYPE svg PUBLIC "-//W3C//DTD SVG 1.1//EN" "http://www.w3.org/Graphics/SVG/1.1/DTD/svg11.dtd"><svg t="1623719670053" class="icon" viewBox="0 0 1024 1024" version="1.1" xmlns="http://www.w3.org/2000/svg" p-id="28316" xmlns:xlink="http://www.w3.org/1999/xlink" width="200" height="200"><defs><style type="text/css"></style></defs><path d="M800.600436 1006.000035L1023.998 986.838073V669.928692l-223.397564-17.999965-241.319528 17.999965-35.99993 152.405702 35.99993 164.503679z" fill="#C6D0DA" p-id="28317"></path><path d="M559.280908 1024h454.395112a10.32198 10.32198 0 0 0 10.32198-10.32198V986.840073H559.280908z" fill="#A0AAB7" p-id="28318"></path><path d="M785.116467 659.720711l205.455598-26.953947L744.358546 359.035299H279.639454l63.229876 150.343706 182.985643 123.387759z" fill="#DC4955" p-id="28319"></path><path d="M525.854973 632.766764l-1.287998 18.579964 34.713933 18.581964H1023.998l-33.425935-37.161928z" fill="#D82F3C" p-id="28320"></path><path d="M910.170222 872.304296V784.060469a10.32198 10.32198 0 0 0-10.32198-10.32198h-83.765836l-15.48397 17.999965-15.483969-17.999965h-83.763837a10.32198 10.32198 0 0 0-10.32198 10.32198v88.243827l108.875788 17.999965z" fill="#9EC8FC" p-id="28321"></path><path d="M701.35263 909.466224h83.763837l15.483969-17.999965 15.48397 17.999965h83.765836a10.32198 10.32198 0 0 0 10.32198-10.32198v-26.837948h-219.139572v26.837948a10.31998 10.31998 0 0 0 10.31998 10.32198z" fill="#80B6FC" p-id="28322"></path><path d="M668.760694 0.002h-61.61388c116.397773 0 116.397773 421.515177 0 421.515177h61.61388c116.399773 0 210.757588-94.359816 210.757588-210.757589S785.160466 0.002 668.760694 0.002z" fill="#ECB85E" p-id="28323"></path><path d="M799.906438 210.759588c0 116.397773-76.359851 210.757588-192.757624 210.757589-6.261988 0-12.459976-0.273999-18.581964-0.807999-107.69579-9.407982-192.175625-99.813805-192.175624-209.94959 0-109.123787 82.933838-198.877612 189.20963-209.66959C592.684842 0.369999 599.872828 0.002 607.148814 0.002c116.397773 0 192.757624 94.359816 192.757624 210.757588z" fill="#F6E080" p-id="28324"></path><path d="M607.148814 0.002c-6.261988 0-12.455976 0.289999-18.579964 0.823998 107.69379 9.409982 192.177625 99.797805 192.177625 209.93359s-84.483835 200.523608-192.177625 209.93359c6.123988 0.535999 12.317976 0.823998 18.579964 0.823999 116.397773 0 210.757588-94.359816 210.757589-210.757589S723.546587 0.002 607.148814 0.002z" fill="#ECCD61" p-id="28325"></path><path d="M785.116467 872.304296l15.481969 17.999965 15.48397-17.999965V773.740489h-30.965939z" fill="#6EAAF3" p-id="28326"></path><path d="M785.116467 872.304296h30.967939v37.161928h-30.967939z" fill="#5D9EE6" p-id="28327"></path><path d="M559.280908 986.838073l-279.641454 17.999964-279.639454-17.999964V669.928692l279.639454-310.893393 279.641454 310.893393z" fill="#E7ECF1" p-id="28328"></path><path d="M10.32198 1024H559.278908v-37.161927H0v26.837947A10.32398 10.32398 0 0 0 10.32198 1024z" fill="#C6D0DA" p-id="28329"></path><path d="M367.949281 986.838073V784.062469a10.32198 10.32198 0 0 0-10.321979-10.32198h-155.973696a10.32198 10.32198 0 0 0-10.32198 10.32198V986.840073l88.309828 17.999964z" fill="#ECB85E" p-id="28330"></path><path d="M191.329626 986.838073h176.619655V1024h-176.619655z" fill="#EAA949" p-id="28331"></path><path d="M238.411534 873.496294a15.51197 15.51197 0 0 0-15.513969 15.51397v21.235958c0 8.567983 6.943986 15.51397 15.513969 15.51397s15.51397-6.945986 15.51397-15.51397v-21.235958a15.51397 15.51397 0 0 0-15.51397-15.51397z" fill="#BD6E45" p-id="28332"></path><path d="M540.756944 480.355062a15.51397 15.51397 0 0 0 0 31.027939h200.369608c8.569983 0 15.51397-6.945986 15.51397-15.513969s-6.943986-15.51397-15.51397-15.51397z" fill="#E7ECF1" p-id="28333"></path><path d="M570.720885 274.489464a14.995971 14.995971 0 0 0-20.763959 4.341991 14.997971 14.997971 0 0 0 4.341991 20.76396c13.157974 8.605983 22.763956 11.959977 34.737933 13.105974v8.473984a14.999971 14.999971 0 0 0 29.999941 0v-9.897981c23.961953-6.275988 39.319923-26.823948 42.727916-47.093908 4.413991-26.261949-9.841981-49.995902-35.47793-59.057885-2.387995-0.843998-4.815991-1.719997-7.249986-2.619995V157.887692c4.443991 1.803996 7.025986 3.967992 7.251986 4.161991l0.014-0.015999c16.697967 13.073974 35.151931-11.559977 18.041965-23.935954-3.847992-2.953994-12.711975-8.801983-25.307951-11.401977v-7.525986a14.999971 14.999971 0 0 0-29.999941 0v8.559984c-0.757999 0.202-1.515997 0.399999-2.283996 0.631998-17.305966 5.21399-30.229941 19.981961-33.727934 38.541925-3.211994 17.047967 2.333995 33.555934 14.475972 43.079916 5.615989 4.405991 12.447976 8.445984 21.535958 12.633975v59.901883c-6.115988-0.961998-10.881979-3.167994-18.315965-8.029984z m61.45988-15.27997c-1.241998 7.387986-5.699989 15.14397-13.141974 19.777961v-44.459913c14.423972 6.539987 14.049973 19.277962 13.141974 24.681952zM586.016855 186.381636c-3.245994-2.545995-4.623991-8.009984-3.511993-13.917973 0.749999-3.985992 2.853994-8.507983 6.533988-11.765977v27.845946a49.077904 49.077904 0 0 1-3.021995-2.161996z" fill="#78C2A4" p-id="28334"></path></svg>