<?xml version="1.0" standalone="no"?><!DOCTYPE svg PUBLIC "-//W3C//DTD SVG 1.1//EN" "http://www.w3.org/Graphics/SVG/1.1/DTD/svg11.dtd"><svg t="1624937233447" class="icon" viewBox="0 0 1024 1024" version="1.1" xmlns="http://www.w3.org/2000/svg" p-id="861" xmlns:xlink="http://www.w3.org/1999/xlink" width="200" height="200"><defs><style type="text/css"></style></defs><path d="M627.4 899.4H407.9c-12.9 0-23.3-10.4-23.3-23.3s10.4-23.3 23.3-23.3h219.5c12.9 0 23.3 10.4 23.3 23.3s-10.4 23.3-23.3 23.3zM600.9 837.5H436c-12.9 0-23.3-10.4-23.3-23.3s10.4-23.3 23.3-23.3h164.9c12.9 0 23.3 10.4 23.3 23.3s-10.4 23.3-23.3 23.3z" p-id="862"></path><path d="M517.7 816.9c-12.9 0-23.3-10.4-23.3-23.3V587.5c0-12.9 10.4-23.3 23.3-23.3s23.3 10.4 23.3 23.3v206.1c0 12.9-10.5 23.3-23.3 23.3z" p-id="863"></path><path d="M477.3 837.5h-87.5c-31.4 0-60.3-6.1-85.9-18.1-29.7-14-54.1-34.1-74.5-61.7-18.1-24.4-30.9-52-41.5-75.9-5.5-12.3-4.4-26.4 3-37.8 7.4-11.3 19.8-18.1 33.4-18.1 75.8 0 148 32.7 197.9 89.8l72.7 83.1c6 6.9 7.5 16.7 3.7 25s-12.2 13.7-21.3 13.7zM234.9 672.9c20.3 44.5 42.6 82.7 88.7 104.4 19.3 9.1 41.6 13.7 66.1 13.7h36.1L387 746.5c-38.7-44.3-93.6-70.7-152.1-73.6z" p-id="864"></path><path d="M389.7 779.3c-22.8 0-43.4-4.2-61.1-12.6-36.3-17-57-45.8-74.3-80.2 47.7 7.1 91.7 30.9 123.9 67.7l21.9 25.1h-10.4z" fill="#8ED7E8" p-id="865"></path><path d="M636.9 837.5h-77.2c-9.1 0-17.4-5.3-21.2-13.7s-2.3-18.1 3.7-25l103.6-118.4c30.3-34.6 74.1-54.5 120.1-54.5h36.6c13.5 0 26 6.8 33.4 18.1 7.4 11.3 8.5 25.4 3 37.8-10.6 23.9-23.5 51.4-41.5 75.9-20.4 27.6-44.7 47.7-74.5 61.7-25.7 12.1-54.6 18.1-86 18.1z m-25.8-46.6h25.8c24.5 0 46.8-4.6 66.1-13.7 46.3-21.7 68.5-60 88.9-104.6h-26c-32.6 0-63.6 14.1-85 38.6l-69.8 79.7z" p-id="866"></path><path d="M636.8 779.3l52.8-60.4c19.2-22 47-34.6 76.3-34.6h7.6c-17.5 35.3-38.3 65-75.4 82.4-17.8 8.3-38.4 12.6-61.1 12.6h-0.2z" fill="#8ED7E8" p-id="867"></path><path d="M517.7 359m-180.3 0a180.3 180.3 0 1 0 360.6 0 180.3 180.3 0 1 0-360.6 0Z" fill="#FFB864" p-id="868"></path><path d="M526.3 357.9c-1.9 0.5-3.6 0.9-5.1 1.3 0.9 1.6 2 3.5 3.3 5.6-2.1-1.3-4-2.3-5.6-3.3-0.4 1.5-0.8 3.2-1.3 5-0.5-1.9-0.9-3.6-1.3-5.1-1.6 1-3.5 2-5.6 3.3 1.3-2.1 2.3-4 3.3-5.6-1.5-0.4-3.2-0.8-5-1.3 1.9-0.5 3.6-0.9 5-1.3-0.9-1.6-2-3.5-3.3-5.6 2.1 1.3 4 2.3 5.6 3.3 0.4-1.5 0.8-3.2 1.3-5 0.5 1.9 0.9 3.6 1.3 5.1 1.6-0.9 3.5-2 5.6-3.3-1.2 2.1-2.4 3.9-3.3 5.6 1.5 0.4 3.2 0.8 5.1 1.3z" fill="#FFDE55" p-id="869"></path><path d="M517.7 349.3c-8-31.9-25.7-114.7 0-114.7 25.9-0.1 7.9 82.9 0 114.7zM510.8 351c-31.6-19-112-70.8-91.4-91.4 20.7-20.7 72.5 59.8 91.4 91.4zM510.8 364.7c-19 31.6-70.8 112-91.4 91.4-20.6-20.6 59.8-72.4 91.4-91.4zM615.9 456.1c-20.7 20.7-72.5-59.8-91.4-91.4 31.6 19 112 70.8 91.4 91.4zM524.5 351c18.9-31.6 70.8-112 91.4-91.4 20.7 20.7-59.7 72.5-91.4 91.4zM509.1 357.9c-31.9 8-114.7 25.7-114.7 0 0-25.9 82.9-8 114.7 0zM517.7 366.5c8 31.9 25.7 114.7 0 114.7-25.9 0-8-83 0-114.7zM641 357.9c0 25.9-83 7.9-114.7 0 31.9-8 114.7-25.7 114.7 0z" fill="#FFDE55" p-id="870"></path><path d="M517.7 609.2c-12.9 0-23.3-10.4-23.3-23.3s10.4-23.3 23.3-23.3c112.3 0 203.6-91.3 203.6-203.6 0-41.7-12.5-81.8-36.2-115.9-7.3-10.6-4.7-25.1 5.9-32.4 10.6-7.3 25.1-4.7 32.4 5.9 29.1 42 44.5 91.2 44.5 142.5 0 66.8-26 129.7-73.3 176.9-47.3 47.2-110.1 73.2-176.9 73.2z" p-id="871"></path><path d="M411.7 583c-3.7 0-7.4-0.9-10.9-2.7C318.6 536.8 267.5 452 267.5 359c0-66.8 26-129.7 73.3-176.9s110.1-73.3 176.9-73.3c33.8 0 66.5 6.6 97.4 19.7 11.9 5 17.4 18.7 12.4 30.5s-18.7 17.4-30.5 12.4c-25.1-10.6-51.7-16-79.2-16-112.3 0-203.6 91.3-203.6 203.6 0 75.7 41.6 144.7 108.5 180.1 11.4 6 15.7 20.1 9.7 31.5-4.3 7.9-12.4 12.4-20.7 12.4z" p-id="872"></path></svg>